<?xml version="1.0" standalone="no"?>
<!DOCTYPE svg PUBLIC "-//W3C//DTD SVG 20010904//EN"
 "http://www.w3.org/TR/2001/REC-SVG-20010904/DTD/svg10.dtd">
<svg version="1.0" xmlns="http://www.w3.org/2000/svg"
 width="720.000000pt" height="1600.000000pt" viewBox="0 0 720.000000 1600.000000"
 preserveAspectRatio="xMidYMid meet">

<g transform="translate(0.000000,1600.000000) scale(0.100000,-0.100000)"
fill="#000000" stroke="none">
<path d="M0 8000 l0 -8000 3600 0 3600 0 0 8000 0 8000 -3600 0 -3600 0 0
-8000z m3590 3834 c0 -14 -3 -14 -15 -4 -8 7 -15 14 -15 16 0 2 7 4 15 4 8 0
15 -7 15 -16z m-400 -30 c0 -14 -4 -23 -9 -20 -5 3 -7 15 -4 26 7 28 13 25 13
-6z m363 -21 c-7 -2 -13 -12 -13 -20 0 -9 -3 -14 -6 -10 -10 10 4 37 18 36 10
0 10 -2 1 -6z m717 -35 c0 -25 -4 -38 -9 -32 -8 8 -4 74 5 74 2 0 4 -19 4 -42z
m-787 -5 c-7 -2 -21 -2 -30 0 -10 3 -4 5 12 5 17 0 24 -2 18 -5z m-596 -100
c-3 -10 -5 -4 -5 12 0 17 2 24 5 18 2 -7 2 -21 0 -30z m230 0 c-3 -10 -5 -4
-5 12 0 17 2 24 5 18 2 -7 2 -21 0 -30z m158 -77 c0 -46 -3 -82 -7 -79 -5 2
-8 40 -8 84 0 43 3 79 8 79 4 0 7 -38 7 -84z m106 63 c40 -40 11 -138 -40
-139 -7 0 -2 9 13 21 41 33 33 113 -14 132 -12 4 -11 6 3 6 9 1 27 -9 38 -20z
m79 -53 c0 -41 -4 -78 -10 -81 -6 -4 -10 23 -10 74 0 47 4 81 10 81 6 0 10
-31 10 -74z m107 68 c-3 -3 -12 -4 -19 -1 -8 3 -5 6 6 6 11 1 17 -2 13 -5z
m270 0 c-3 -3 -12 -4 -19 -1 -8 3 -5 6 6 6 11 1 17 -2 13 -5z m180 -66 c-2
-13 -4 -3 -4 22 0 25 2 35 4 23 2 -13 2 -33 0 -45z m-504 13 c-4 -25 0 -51 11
-73 l16 -33 -25 28 c-27 31 -32 66 -13 97 7 11 14 20 14 20 1 0 0 -18 -3 -39z
m277 -37 c0 -41 -4 -63 -10 -59 -16 10 -11 125 6 125 2 0 4 -30 4 -66z m170
-33 c0 -3 -5 0 -12 7 -22 22 -67 14 -80 -13 -13 -28 -34 -35 -23 -7 4 9 10 25
12 34 4 13 14 17 37 15 28 -2 31 1 35 28 3 29 4 28 17 -15 8 -25 14 -47 14
-49z m-347 42 c-7 -2 -19 -2 -25 0 -7 3 -2 5 12 5 14 0 19 -2 13 -5z m-1356
-40 c-3 -10 -5 -4 -5 12 0 17 2 24 5 18 2 -7 2 -21 0 -30z m2360 -85 c-3 -7
-5 -2 -5 12 0 14 2 19 5 13 2 -7 2 -19 0 -25z m-2180 -44 c-3 -3 -12 -4 -19
-1 -8 3 -5 6 6 6 11 1 17 -2 13 -5z m86 -55 c21 -1 20 -1 -3 -8 -17 -5 -27
-16 -31 -36 -4 -19 -7 -5 -7 40 0 60 1 65 9 38 7 -24 16 -33 32 -34z m167 41
c0 -11 -4 -20 -10 -20 -5 0 -10 2 -10 4 0 2 -3 11 -6 20 -4 11 -1 16 10 16 9
0 16 -8 16 -20z m96 -4 c3 -13 4 -37 1 -52 -3 -25 -4 -24 -6 9 -1 35 -21 55
-21 20 0 -9 -2 -14 -5 -11 -8 8 6 58 16 58 5 0 11 -11 15 -24z m237 17 c-7 -2
-21 -2 -30 0 -10 3 -4 5 12 5 17 0 24 -2 18 -5z m734 -23 c0 -16 -4 -27 -9
-24 -10 6 -11 38 -1 47 9 10 10 10 10 -23z m-865 -34 c4 -21 1 -25 -29 -28
-28 -3 -33 -1 -33 16 0 16 3 17 12 8 18 -18 38 -14 38 8 0 27 7 25 12 -4z
m-322 -2 c0 -8 -5 -12 -10 -9 -6 4 -8 11 -5 16 9 14 15 11 15 -7z m1367 -6
c-3 -8 -6 -5 -6 6 -1 11 2 17 5 13 3 -3 4 -12 1 -19z m157 7 c9 -9 12 -23 8
-33 -6 -15 -7 -15 -10 3 -2 11 -11 26 -20 33 -9 6 -11 12 -5 12 7 0 18 -7 27
-15z m-107 -27 c-3 -7 -5 -2 -5 12 0 14 2 19 5 13 2 -7 2 -19 0 -25z m-1800
-10 c-3 -7 -5 -2 -5 12 0 14 2 19 5 13 2 -7 2 -19 0 -25z m1573 1 c0 -6 -4 -7
-10 -4 -5 3 -10 11 -10 16 0 6 5 7 10 4 6 -3 10 -11 10 -16z m-603 -11 c-3 -8
-6 -5 -6 6 -1 11 2 17 5 13 3 -3 4 -12 1 -19z m1857 -62 c-3 -9 -10 -16 -15
-16 -5 0 -4 9 3 20 14 22 21 20 12 -4z m-944 -54 c0 -15 -2 -15 -10 -2 -13 20
-13 33 0 25 6 -3 10 -14 10 -23z m85 19 c-18 -7 -55 -4 -55 5 0 2 17 4 38 3
28 0 32 -2 17 -8z m142 3 c-3 -3 -12 -4 -19 -1 -8 3 -5 6 6 6 11 1 17 -2 13
-5z m-1357 -60 c0 -42 -2 -45 -16 -33 -10 8 -12 15 -5 17 6 2 11 17 11 33 0
16 2 29 5 29 3 0 5 -21 5 -46z m397 9 c-3 -10 -5 -4 -5 12 0 17 2 24 5 18 2
-7 2 -21 0 -30z m-800 -20 c-3 -10 -5 -2 -5 17 0 19 2 27 5 18 2 -10 2 -26 0
-35z m850 25 c-3 -8 -6 -5 -6 6 -1 11 2 17 5 13 3 -3 4 -12 1 -19z m650 -20
c-3 -7 -5 -2 -5 12 0 14 2 19 5 13 2 -7 2 -19 0 -25z m-1270 -10 c-3 -7 -5 -2
-5 12 0 14 2 19 5 13 2 -7 2 -19 0 -25z m1323 6 c0 -14 -3 -14 -15 -4 -8 7
-15 14 -15 16 0 2 7 4 15 4 8 0 15 -7 15 -16z m-120 -24 c0 -5 -4 -10 -10 -10
-5 0 -10 5 -10 10 0 6 5 10 10 10 6 0 10 -4 10 -10z m40 -131 c0 -24 -4 -38
-10 -34 -17 10 -11 75 7 75 2 0 3 -18 3 -41z m-1473 -36 c-2 -16 -4 -5 -4 22
0 28 2 40 4 28 2 -13 2 -35 0 -50z m2430 -25 c-2 -13 -4 -3 -4 22 0 25 2 35 4
23 2 -13 2 -33 0 -45z m-2530 15 c-3 -10 -5 -4 -5 12 0 17 2 24 5 18 2 -7 2
-21 0 -30z m1500 -5 c-3 -7 -5 -2 -5 12 0 14 2 19 5 13 2 -7 2 -19 0 -25z
m-345 -13 c3 -13 1 -22 -3 -19 -9 5 -13 44 -5 44 2 0 6 -11 8 -25z m326 -23
c4 -25 -13 -30 -22 -6 -9 25 -7 36 7 32 6 -3 13 -14 15 -26z m-1228 -26 c0 -8
-4 -18 -10 -21 -5 -3 -10 3 -10 14 0 12 5 21 10 21 6 0 10 -6 10 -14z m98 -48
c-2 -61 -2 -61 -5 -13 -3 27 -9 55 -15 62 -8 10 -6 13 6 13 13 0 16 -11 14
-62z m199 -30 c-2 -18 -4 -4 -4 32 0 36 2 50 4 33 2 -18 2 -48 0 -65z m-150
10 c-2 -13 -4 -3 -4 22 0 25 2 35 4 23 2 -13 2 -33 0 -45z m-825 -20 c-3 -22
0 -35 12 -43 15 -11 15 -13 -4 -18 -18 -5 -20 0 -20 44 0 27 4 49 8 49 5 0 6
-14 4 -32z m125 -20 c-2 -13 -4 -5 -4 17 -1 22 1 32 4 23 2 -10 2 -28 0 -40z
m70 15 c-3 -10 -5 -4 -5 12 0 17 2 24 5 18 2 -7 2 -21 0 -30z m103 8 c0 -4 -9
-7 -20 -7 -11 0 -20 1 -20 2 0 1 3 10 6 18 5 13 9 14 20 5 8 -6 14 -14 14 -18z
m97 -18 c-3 -10 -5 -2 -5 17 0 19 2 27 5 18 2 -10 2 -26 0 -35z m87 39 c-7 -4
-14 -16 -17 -27 -4 -15 -5 -14 -6 8 -1 20 4 27 17 27 11 0 13 -3 6 -8z m443
-24 c-3 -8 -6 -5 -6 6 -1 11 2 17 5 13 3 -3 4 -12 1 -19z m-197 2 c0 -5 -5
-10 -11 -10 -5 0 -7 5 -4 10 3 6 8 10 11 10 2 0 4 -4 4 -10z m-181 -56 c2 -2
-12 -4 -33 -4 l-37 0 3 -42 c3 -41 5 -43 35 -43 17 0 35 -3 39 -7 4 -5 -16 -8
-44 -8 -47 0 -52 2 -58 25 -3 14 -3 40 0 59 6 33 7 34 49 29 23 -3 44 -7 46
-9z m1938 -31 c-4 -17 -4 -17 -12 0 -4 9 -4 25 0 35 8 16 8 16 12 0 3 -10 3
-26 0 -35z m-82 27 c3 -5 1 -10 -4 -10 -6 0 -11 5 -11 10 0 6 2 10 4 10 3 0 8
-4 11 -10z m-2005 -50 c0 -27 -4 -50 -9 -50 -12 0 -51 63 -51 81 1 9 8 5 20
-9 l19 -23 7 25 c9 39 14 31 14 -24z m-120 15 c0 -14 -4 -25 -10 -25 -5 0 -10
11 -10 25 0 14 5 25 10 25 6 0 10 -11 10 -25z m1977 3 c-3 -8 -6 -5 -6 6 -1
11 2 17 5 13 3 -3 4 -12 1 -19z m-2130 -50 c-2 -13 -4 -3 -4 22 0 25 2 35 4
23 2 -13 2 -33 0 -45z m70 0 c-2 -13 -4 -3 -4 22 0 25 2 35 4 23 2 -13 2 -33
0 -45z m2160 40 c-3 -8 -6 -5 -6 6 -1 11 2 17 5 13 3 -3 4 -12 1 -19z m-2347
-30 c0 -9 -4 -20 -10 -23 -6 -4 -10 9 -10 32 0 28 3 34 10 23 5 -8 10 -23 10
-32z m265 -18 c3 -5 1 -10 -4 -10 -6 0 -11 5 -11 10 0 6 2 10 4 10 3 0 8 -4
11 -10z m1948 -7 c-7 -2 -21 -2 -30 0 -10 3 -4 5 12 5 17 0 24 -2 18 -5z
m-1840 -160 c-4 -27 -2 -32 19 -36 21 -4 20 -4 -4 -6 -28 -1 -28 0 -27 57 0
41 3 51 9 37 5 -11 6 -34 3 -52z m112 21 c8 -4 14 -16 14 -28 -1 -14 -3 -16
-6 -5 -2 9 -15 22 -28 29 -25 13 -32 30 -18 44 4 4 11 -2 15 -14 4 -11 14 -23
23 -26z m82 -3 c16 -10 16 -10 -4 -11 -35 0 -31 -37 5 -43 25 -4 25 -4 -5 -6
l-33 -1 1 58 c0 43 2 52 9 35 5 -12 17 -26 27 -32z m103 29 c0 -11 5 -20 10
-20 6 0 10 -9 10 -20 0 -11 -4 -20 -10 -20 -5 0 -10 8 -10 19 0 10 -7 24 -15
31 -8 7 -15 16 -15 21 0 5 7 9 15 9 8 0 15 -9 15 -20z m88 -28 c10 2 17 13 16
26 0 12 3 22 8 22 4 0 8 -6 8 -14 0 -27 -12 -46 -30 -46 -10 0 -21 -8 -23 -17
-3 -10 -5 5 -4 32 0 28 2 37 4 22 3 -20 9 -27 21 -25z m84 32 c-12 -8 -22 -25
-23 -37 0 -13 -3 -16 -6 -9 -8 19 17 62 36 62 11 0 9 -4 -7 -16z m1388 -10 c0
-14 -4 -23 -9 -20 -5 3 -7 15 -4 26 7 28 13 25 13 -6z m37 -26 c-2 -13 -4 -5
-4 17 -1 22 1 32 4 23 2 -10 2 -28 0 -40z m35 12 c-6 -41 -12 -38 -12 6 0 19
4 33 8 30 5 -3 7 -19 4 -36z m-1365 -17 c-3 -10 -5 -2 -5 17 0 19 2 27 5 18 2
-10 2 -26 0 -35z m-633 16 c14 12 16 10 15 -20 -1 -19 -3 -26 -6 -16 -7 25
-41 21 -46 -5 -2 -13 -5 -3 -6 21 -1 41 0 43 13 26 12 -16 16 -17 30 -6z m693
-11 c-3 -7 -5 -2 -5 12 0 14 2 19 5 13 2 -7 2 -19 0 -25z m1073 -16 c0 -10 -4
-10 -15 2 -8 8 -15 23 -15 32 0 16 1 16 15 -2 8 -10 15 -25 15 -32z m115 38
c3 -5 1 -10 -4 -10 -6 0 -11 5 -11 10 0 6 2 10 4 10 3 0 8 -4 11 -10z m-1542
-43 c-9 -16 -24 9 -17 28 7 18 8 18 14 -1 4 -10 5 -23 3 -27z m-592 -7 c5 0 9
8 10 18 0 9 3 12 5 5 3 -7 0 -22 -6 -34 -10 -17 -14 -19 -21 -8 -5 8 -8 23 -8
34 1 17 2 17 6 3 2 -10 9 -18 14 -18z m81 8 c2 -14 13 -25 28 -29 23 -7 23 -7
-6 -8 -31 -1 -44 12 -44 45 0 23 18 16 22 -8z m1973 13 c3 -5 1 -12 -5 -16 -5
-3 -10 1 -10 9 0 18 6 21 15 7z m242 -13 c-3 -8 -6 -5 -6 6 -1 11 2 17 5 13 3
-3 4 -12 1 -19z m-2560 -20 c-3 -8 -6 -5 -6 6 -1 11 2 17 5 13 3 -3 4 -12 1
-19z m166 -15 c-7 -2 -21 -2 -30 0 -10 3 -4 5 12 5 17 0 24 -2 18 -5z m524 1
c-3 -3 -12 -4 -19 -1 -8 3 -5 6 6 6 11 1 17 -2 13 -5z m1672 -75 c12 -12 20
-24 17 -27 -3 -3 -14 2 -24 11 -10 10 -29 17 -41 17 -12 0 -19 4 -16 10 10 16
40 11 64 -11z m83 -1 c-15 -15 -15 -51 0 -66 9 -9 9 -12 1 -12 -7 0 -14 -12
-16 -27 -2 -16 -5 4 -6 44 -1 49 3 73 12 76 18 6 23 -1 9 -15z m131 5 c-15 -5
-17 -34 -5 -48 5 -6 3 -26 -4 -45 -13 -34 -13 -34 -13 33 -1 58 1 67 17 66 10
0 12 -3 5 -6z m-1394 -80 c-2 -60 -3 -69 -8 -38 -6 39 -3 115 5 115 2 0 3 -35
3 -77z m129 64 c-27 -10 -28 -14 -28 -76 0 -46 -3 -62 -10 -51 -5 8 -10 37
-10 63 0 40 -4 50 -20 54 -40 11 -19 23 38 22 52 -1 54 -2 30 -12z m964 1
c-15 -15 -16 -104 -2 -111 6 -3 5 -4 -2 -3 -28 5 -31 100 -4 118 17 12 21 9 8
-4z m-1309 -80 c-4 -21 -8 -26 -14 -16 -11 16 -11 60 -2 84 6 15 8 13 14 -10
5 -16 5 -42 2 -58z m444 51 c1 -14 0 -17 -3 -6 -6 20 -24 23 -24 5 0 -7 -3
-23 -6 -35 -5 -19 -2 -23 19 -23 14 0 27 6 30 13 2 6 6 0 9 -15 3 -16 1 -28
-3 -28 -5 0 -9 5 -9 10 0 19 -49 10 -65 -12 -17 -23 -17 -22 -10 16 3 21 10
46 15 55 5 9 11 24 14 34 8 26 31 16 33 -14z m1100 9 c-3 -8 -6 -5 -6 6 -1 11
2 17 5 13 3 -3 4 -12 1 -19z m-1955 -18 c3 -22 2 -27 -8 -19 -6 5 -10 19 -7
29 7 27 10 25 15 -10z m342 14 c18 -17 21 -61 6 -84 -7 -11 -10 -6 -10 20 0
20 -7 46 -16 58 -17 25 -3 30 20 6z m142 0 c-9 -8 -16 -25 -16 -37 0 -12 -5
-29 -10 -37 -8 -13 -10 -12 -11 5 -5 52 10 85 38 85 12 0 12 -3 -1 -16z m-416
-8 c0 -8 -4 -18 -10 -21 -5 -3 -10 3 -10 14 0 12 5 21 10 21 6 0 10 -6 10 -14z
m174 -30 c-3 -14 -10 -26 -15 -26 -10 0 -12 53 -2 64 13 12 24 -11 17 -38z
m-794 19 c0 -9 -6 -12 -16 -8 -13 5 -13 7 -2 14 17 11 18 11 18 -6z m520 -6
c0 -11 -4 -18 -10 -14 -5 3 -7 12 -3 20 7 21 13 19 13 -6z m-210 -4 c7 -9 8
-15 2 -15 -5 0 -12 7 -16 15 -3 8 -4 15 -2 15 2 0 9 -7 16 -15z m37 -7 c-3 -8
-6 -5 -6 6 -1 11 2 17 5 13 3 -3 4 -12 1 -19z m83 5 c0 -15 -2 -16 -10 -3 -8
12 -13 13 -30 2 -17 -10 -20 -10 -20 3 0 10 10 15 30 15 22 0 30 -5 30 -17z
m270 1 c0 -14 -3 -14 -15 -4 -8 7 -15 14 -15 16 0 2 7 4 15 4 8 0 15 -7 15
-16z m429 -51 c-1 -37 -1 -38 -11 -10 -5 15 -14 27 -19 27 -5 0 -9 5 -9 10 0
6 9 10 20 10 17 0 20 -6 19 -37z m1198 -29 c-3 -3 -12 -4 -19 -1 -8 3 -5 6 6
6 11 1 17 -2 13 -5z m-2257 -28 c0 -3 -4 -8 -10 -11 -5 -3 -10 -1 -10 4 0 6 5
11 10 11 6 0 10 -2 10 -4z m87 -2 c-3 -3 -12 -4 -19 -1 -8 3 -5 6 6 6 11 1 17
-2 13 -5z m40 0 c-3 -3 -12 -4 -19 -1 -8 3 -5 6 6 6 11 1 17 -2 13 -5z m141
-6 c7 -7 12 -16 12 -22 0 -5 -6 -2 -13 8 -20 27 -69 18 -78 -14 -6 -23 -7 -22
-8 8 -1 31 1 32 37 32 21 0 43 -5 50 -12z m90 5 c-24 -4 -27 -8 -26 -44 0 -22
-2 -43 -6 -46 -3 -4 -6 17 -6 45 l0 52 33 -1 c29 -2 29 -2 5 -6z m100 0 c-15
-2 -29 -12 -31 -21 -3 -12 -5 -10 -6 6 -1 19 4 22 32 21 29 -2 29 -2 5 -6z
m95 -7 c6 -16 -2 -28 -14 -20 -12 7 -11 34 0 34 5 0 11 -6 14 -14z m-403 -27
c0 -6 -4 -7 -10 -4 -5 3 -10 11 -10 16 0 6 5 7 10 4 6 -3 10 -11 10 -16z m976
-30 c29 -8 44 -17 44 -28 0 -13 2 -13 9 -2 11 16 25 -3 18 -23 -6 -14 10 -65
31 -103 19 -34 15 -56 -8 -50 -13 3 -31 -6 -56 -29 -30 -28 -34 -37 -24 -49
10 -12 9 -15 -3 -15 -9 0 -19 5 -22 10 -10 16 -42 12 -49 -6 -6 -16 -8 -16
-24 0 -23 20 -51 21 -58 1 -9 -21 -32 -19 -39 5 -8 26 -21 25 -29 -2 l-6 -23
-25 28 c-25 28 -69 37 -79 15 -3 -7 -5 10 -5 37 -1 28 -4 80 -7 118 -4 50 -3
67 7 67 7 0 10 3 7 6 -10 9 28 42 54 47 49 9 221 7 264 -4z m1011 -41 c-3 -8
-6 -5 -6 6 -1 11 2 17 5 13 3 -3 4 -12 1 -19z m-1756 -131 c9 -22 20 -40 53
-90 10 -15 16 -31 13 -34 -3 -2 -21 18 -39 46 -18 28 -36 51 -40 51 -5 0 -8
-22 -8 -50 0 -27 -4 -50 -10 -50 -11 0 -14 142 -4 153 10 9 24 -2 35 -26z
m1638 23 c20 -10 47 -67 37 -77 -3 -3 -6 1 -6 10 0 10 -4 17 -10 17 -5 0 -10
6 -10 13 0 7 -12 20 -27 29 -29 18 -15 25 16 8z m113 -1 c-18 -7 -23 -16 -22
-36 3 -44 0 -117 -4 -112 -8 8 -16 122 -11 140 4 13 15 19 33 18 27 0 27 0 4
-10z m-1675 -21 c-3 -8 -6 -5 -6 6 -1 11 2 17 5 13 3 -3 4 -12 1 -19z m1353
-98 l-4 -35 -6 35 c-3 19 -3 55 0 80 l4 45 6 -45 c3 -25 3 -61 0 -80z m70 100
c0 -5 -2 -10 -4 -10 -3 0 -8 5 -11 10 -3 6 -1 10 4 10 6 0 11 -4 11 -10z m74
2 c-6 -4 -16 -20 -22 -37 -6 -19 -11 -23 -11 -12 -1 25 17 57 32 57 8 0 9 -3
1 -8z m-1827 -79 c-3 -10 -5 -4 -5 12 0 17 2 24 5 18 2 -7 2 -21 0 -30z m1739
28 c-3 -5 1 -25 9 -45 8 -20 13 -36 10 -36 -3 0 -11 14 -16 30 -6 17 -18 30
-27 30 -13 0 -12 3 4 15 22 17 27 18 20 6z m-1566 -50 c0 -31 -14 -49 -25 -32
-8 13 5 61 16 61 5 0 9 -13 9 -29z m1086 -29 c-7 -7 -36 28 -35 43 0 6 3 4 6
-2 7 -19 23 -16 24 5 1 9 4 4 6 -11 3 -16 2 -31 -1 -35z m643 7 c-24 -15 -30
-10 -11 9 9 10 19 14 21 9 2 -5 -3 -13 -10 -18z m-1789 -108 c-31 -9 -33 -35
-2 -39 27 -4 19 -22 -10 -22 -15 0 -19 -5 -15 -20 3 -11 1 -20 -4 -20 -10 0
-12 70 -3 94 4 10 17 16 33 15 l26 -1 -25 -7z m104 0 c3 -5 -1 -14 -9 -21 -13
-10 -15 -9 -15 9 0 21 14 28 24 12z m396 -6 c0 -11 -11 -15 -40 -15 l-40 0 0
-116 c0 -102 -2 -115 -15 -104 -12 10 -15 36 -15 116 0 104 0 104 -24 104 -26
0 -40 12 -29 24 3 3 42 6 85 6 63 0 78 -3 78 -15z m170 0 c0 -11 -12 -15 -50
-15 -57 0 -70 -14 -54 -59 7 -18 16 -25 30 -23 11 1 31 -2 45 -7 26 -10 21
-12 -41 -15 -23 -1 -25 -6 -28 -48 l-3 -47 53 -3 c76 -4 61 -23 -19 -23 l-68
0 -3 95 c-2 52 0 110 3 128 l6 32 64 0 c51 0 65 -3 65 -15z m466 -103 c1 -79
-3 -117 -12 -129 -12 -16 -13 -11 -14 39 0 68 -15 81 -83 72 l-45 -6 -4 -54
c-5 -58 -10 -70 -27 -59 -12 7 -14 77 -4 178 7 78 21 88 25 20 l3 -48 65 0 65
0 3 53 c2 36 7 52 15 49 8 -2 12 -39 13 -115z m110 91 c27 -41 63 -103 79
-140 18 -39 34 -50 46 -32 6 10 9 6 9 -13 0 -37 -23 -36 -47 0 -10 16 -36 56
-58 90 -22 34 -43 62 -47 62 -5 0 -8 -43 -8 -95 0 -57 -4 -95 -10 -95 -5 0
-10 10 -10 23 0 12 -3 61 -6 109 -4 48 -4 94 0 103 9 23 32 18 52 -12z m134
-65 c0 -64 -3 -88 -10 -78 -13 20 -13 170 0 170 6 0 10 -37 10 -92z m155 75
c-44 -23 -65 -44 -65 -64 0 -18 -17 -35 -27 -26 -16 17 29 81 68 96 39 16 57
12 24 -6z m423 5 c-3 -7 -13 -15 -24 -17 -16 -3 -17 -1 -5 13 16 19 34 21 29
4z m-343 -14 c40 -41 48 -63 41 -122 -8 -72 -34 -102 -85 -101 -35 1 -36 1 -6
8 37 8 75 62 75 108 0 45 -25 98 -53 111 -17 8 -18 11 -5 11 9 1 24 -6 33 -15z
m124 9 c-1 -5 -1 -54 0 -110 l1 -103 55 0 c44 0 55 -3 55 -16 0 -14 -9 -15
-62 -9 -35 4 -66 12 -70 19 -15 22 -2 226 13 226 5 0 8 -3 8 -7z m-973 -34
c-19 -23 -26 -42 -26 -74 0 -32 7 -51 26 -74 22 -27 32 -31 74 -31 54 0 75
-16 35 -26 -87 -22 -165 31 -165 113 0 57 36 123 67 123 10 0 7 -9 -11 -31z
m-646 -9 c0 -13 -7 -20 -18 -20 -10 0 -23 -5 -30 -12 -9 -9 -12 -6 -12 17 0
23 3 26 12 17 17 -17 38 -15 38 3 0 8 2 15 5 15 3 0 5 -9 5 -20z m1780 -120
c0 -33 42 -57 94 -55 45 2 48 1 31 -11 -25 -18 -55 -18 -93 2 -41 20 -62 51
-62 89 1 29 1 29 15 11 8 -11 15 -27 15 -36z m301 -53 c-1 -12 -15 -9 -19 4
-3 6 1 10 8 8 6 -3 11 -8 11 -12z m-2300 -146 c-5 -3 -11 -17 -14 -31 -3 -16
-5 -9 -6 19 -1 38 1 42 14 31 9 -8 12 -16 6 -19z m665 -18 c-1 -44 1 -48 25
-51 46 -5 61 73 17 91 -8 3 -6 6 5 6 26 1 40 -44 25 -77 -10 -21 -22 -28 -51
-30 l-37 -3 0 55 c0 31 4 56 8 56 5 0 8 -21 8 -47z m124 22 c0 -19 6 -25 23
-26 l22 -2 -22 -4 c-14 -3 -23 -12 -23 -23 0 -11 9 -20 23 -23 16 -3 13 -5
-10 -6 l-33 -1 0 55 c0 30 5 55 10 55 6 0 10 -11 10 -25z m77 -7 c-3 -7 -5 -2
-5 12 0 14 2 19 5 13 2 -7 2 -19 0 -25z m70 0 c-3 -7 -5 -2 -5 12 0 14 2 19 5
13 2 -7 2 -19 0 -25z m135 -35 c2 -24 0 -43 -4 -43 -5 0 -7 26 -7 58 1 61 6
55 11 -15z m81 52 c-3 -9 -8 -14 -10 -11 -3 3 -2 9 2 15 9 16 15 13 8 -4z
m467 0 c0 -8 -4 -15 -9 -15 -6 0 -12 -17 -14 -37 -3 -34 -4 -34 -4 7 0 25 2
48 4 53 7 13 23 8 23 -8z m132 -15 c-2 -16 -6 -30 -8 -30 -2 0 -4 14 -4 30 0
17 4 30 8 30 5 0 7 -13 4 -30z m-485 -12 c-3 -7 -5 -2 -5 12 0 14 2 19 5 13 2
-7 2 -19 0 -25z m-1217 -24 c0 -20 -13 -17 -27 5 -10 16 -9 18 8 14 10 -3 19
-12 19 -19z m1600 -2 c0 -15 -2 -15 -10 -2 -13 20 -13 33 0 25 6 -3 10 -14 10
-23z m-734 -17 c-8 -32 -30 -28 -33 6 -1 13 0 18 3 12 8 -19 24 -16 24 4 0 9
3 14 6 10 4 -3 3 -18 0 -32z m97 28 c-7 -2 -21 -2 -30 0 -10 3 -4 5 12 5 17 0
24 -2 18 -5z m667 -35 c0 -16 -3 -19 -11 -11 -6 6 -8 16 -5 22 11 17 16 13 16
-11z m-145 -10 c6 -4 2 -8 -7 -8 -10 0 -18 7 -18 17 0 9 3 12 8 7 4 -5 12 -12
17 -16z m-740 -107 c-16 -15 -68 -17 -72 -3 -3 8 8 12 38 12 26 0 39 -4 34 -9z
m130 0 c-6 -5 -23 -11 -40 -13 -28 -3 -30 -6 -30 -46 0 -27 -4 -42 -12 -42 -9
0 -13 18 -13 55 l0 55 52 0 c32 0 48 -4 43 -9z m592 3 c-3 -3 -12 -4 -19 -1
-8 3 -5 6 6 6 11 1 17 -2 13 -5z m-50 -61 c-3 -10 -5 -2 -5 17 0 19 2 27 5 18
2 -10 2 -26 0 -35z m-258 -21 c53 -5 81 5 82 31 1 51 18 -19 18 -80 1 -73 -17
-95 -21 -26 l-3 48 -55 0 -55 0 3 -41 c2 -23 -1 -45 -7 -49 -8 -4 -11 23 -10
87 1 54 4 80 8 63 5 -25 11 -31 40 -33z m751 1 c0 -7 -4 -13 -10 -13 -5 0 -10
6 -10 14 0 8 -3 23 -6 33 -6 16 -5 16 9 -2 9 -11 17 -26 17 -32z m67 -5 c-3
-8 -6 -5 -6 6 -1 11 2 17 5 13 3 -3 4 -12 1 -19z m73 2 c0 -5 -2 -10 -4 -10
-3 0 -8 5 -11 10 -3 6 -1 10 4 10 6 0 11 -4 11 -10z m-1110 -29 c0 -16 7 -34
15 -41 19 -16 19 -31 0 -24 -8 3 -19 22 -25 42 -12 46 -12 52 0 52 6 0 10 -13
10 -29z m1147 13 c-3 -3 -12 -4 -19 -1 -8 3 -5 6 6 6 11 1 17 -2 13 -5z
m-1399 -57 c2 -28 -1 -37 -12 -37 -12 0 -16 11 -16 41 0 52 24 48 28 -4z
m1465 -28 c-6 -6 -23 -11 -38 -11 -15 0 -32 5 -38 11 -8 8 2 11 38 11 36 0 46
-3 38 -11z m77 8 c0 -1 -9 -10 -20 -20 -19 -16 -20 -16 -20 3 0 13 7 20 20 20
11 0 20 -1 20 -3z m-1165 -17 c-3 -5 -22 -10 -41 -10 -19 0 -34 5 -34 10 0 6
18 10 41 10 24 0 38 -4 34 -10z m595 -11 c10 -17 9 -20 -7 -17 -21 3 -34 18
-27 30 9 14 23 9 34 -13z m277 -16 c-3 -10 -5 -4 -5 12 0 17 2 24 5 18 2 -7 2
-21 0 -30z m93 -51 c-7 -12 -9 -2 -9 38 1 55 1 55 10 17 6 -24 5 -45 -1 -55z
m-450 68 c0 -5 -2 -10 -4 -10 -3 0 -8 5 -11 10 -3 6 -1 10 4 10 6 0 11 -4 11
-10z m237 -62 c-2 -13 -4 -3 -4 22 0 25 2 35 4 23 2 -13 2 -33 0 -45z m-50
-30 c-2 -13 -4 -3 -4 22 0 25 2 35 4 23 2 -13 2 -33 0 -45z m-279 0 c16 -20
57 -24 67 -8 3 6 11 10 17 10 7 0 6 -6 -2 -15 -29 -35 -111 -6 -109 39 0 15 2
16 6 6 3 -8 12 -23 21 -32z m461 -3 c0 -5 -4 -3 -9 5 -5 8 -9 22 -9 30 0 16
17 -16 18 -35z m168 13 c-3 -7 -5 -2 -5 12 0 14 2 19 5 13 2 -7 2 -19 0 -25z
m-408 -11 c-13 -29 -29 -27 -29 3 0 13 5 17 15 14 8 -4 15 -1 15 7 0 7 2 10 5
7 3 -3 0 -17 -6 -31z m-658 4 c-9 -6 -12 -21 -9 -44 3 -29 1 -34 -9 -25 -7 6
-13 20 -13 31 0 22 29 61 39 52 3 -4 -1 -10 -8 -14z m66 -37 c1 -24 0 -25 -4
-5 -3 13 -15 33 -26 44 l-22 19 25 -15 c17 -9 26 -24 27 -43z m1109 13 c21 -4
21 -4 -3 -3 -21 1 -28 6 -29 21 -1 14 0 15 3 3 2 -9 15 -19 29 -21z m-1689 11
c-3 -8 -6 -5 -6 6 -1 11 2 17 5 13 3 -3 4 -12 1 -19z m168 12 c3 -5 1 -10 -4
-10 -6 0 -11 5 -11 10 0 6 2 10 4 10 3 0 8 -4 11 -10z m86 -23 c-8 -8 -11 -7
-11 4 0 20 13 34 18 19 3 -7 -1 -17 -7 -23z m210 -36 c-8 -22 -9 -19 -10 24 0
42 2 46 10 26 6 -15 6 -34 0 -50z m-61 13 c0 -27 -4 -43 -10 -39 -11 7 -13 45
-4 69 10 26 14 18 14 -30z m207 4 c-3 -7 -5 -2 -5 12 0 14 2 19 5 13 2 -7 2
-19 0 -25z m-430 0 c-3 -8 -6 -5 -6 6 -1 11 2 17 5 13 3 -3 4 -12 1 -19z m711
15 c-10 -2 -26 -2 -35 0 -10 3 -2 5 17 5 19 0 27 -2 18 -5z m579 1 c-3 -3 -12
-4 -19 -1 -8 3 -5 6 6 6 11 1 17 -2 13 -5z m-1173 -45 c-10 -16 -24 -9 -24 12
0 18 2 19 15 9 8 -7 12 -16 9 -21z m396 5 c0 -8 -4 -14 -10 -14 -5 0 -10 9
-10 21 0 11 5 17 10 14 6 -3 10 -13 10 -21z m-463 -16 c-3 -8 -6 -5 -6 6 -1
11 2 17 5 13 3 -3 4 -12 1 -19z m400 0 c-3 -8 -6 -5 -6 6 -1 11 2 17 5 13 3
-3 4 -12 1 -19z m280 -44 c-3 -3 -12 -4 -19 -1 -8 3 -5 6 6 6 11 1 17 -2 13
-5z m75 -36 c-5 -71 -10 -77 -11 -15 0 31 2 57 7 57 4 0 6 -19 4 -42z m142 26
c4 -10 1 -14 -6 -12 -15 5 -23 28 -10 28 5 0 13 -7 16 -16z m254 -17 c2 -16
-2 -27 -8 -27 -7 0 -10 7 -7 15 4 8 2 17 -3 20 -15 9 -12 27 3 23 6 -3 13 -17
15 -31z m99 -19 c-2 -13 -4 -5 -4 17 -1 22 1 32 4 23 2 -10 2 -28 0 -40z
m-2127 -53 l-8 -40 -1 50 c-1 29 3 45 8 40 5 -6 6 -28 1 -50z m953 48 c-7 -2
-19 -2 -25 0 -7 3 -2 5 12 5 14 0 19 -2 13 -5z m119 -25 c-9 -9 -12 -7 -12 12
0 19 3 21 12 12 9 -9 9 -15 0 -24z m58 10 c0 -16 -3 -19 -11 -11 -6 6 -8 16
-5 22 11 17 16 13 16 -11z m82 -8 c-2 -16 -6 -30 -8 -30 -2 0 -4 14 -4 30 0
17 4 30 8 30 5 0 7 -13 4 -30z m521 0 c-3 -12 -8 -19 -11 -16 -5 6 5 36 12 36
2 0 2 -9 -1 -20z m-276 -22 c-3 -7 -5 -2 -5 12 0 14 2 19 5 13 2 -7 2 -19 0
-25z m-353 -105 c-27 -5 -31 -21 -26 -95 3 -52 6 -58 26 -58 60 0 89 61 56
116 -18 28 -19 34 -6 34 28 0 47 -43 40 -89 -9 -53 -47 -84 -101 -79 l-38 3
-3 74 c-4 93 0 101 40 100 22 -1 26 -3 12 -6z m146 -78 c0 -47 -4 -85 -9 -85
-4 0 -9 38 -10 85 0 50 3 85 9 85 6 0 10 -36 10 -85z m126 75 c-45 -14 -66
-39 -66 -78 0 -46 24 -72 65 -72 40 0 53 25 28 53 -17 19 -17 19 2 16 15 -3
20 -12 20 -39 0 -32 -3 -35 -35 -41 -74 -11 -124 48 -96 116 17 39 40 55 81
54 l30 -1 -29 -8z m101 -123 c-2 -23 -3 -1 -3 48 0 50 1 68 3 42 2 -26 2 -67
0 -90z m115 121 c-7 -7 -13 -45 -14 -87 l-2 -76 -5 80 c-6 74 -8 80 -31 86
-20 6 -15 7 20 8 34 1 41 -2 32 -11z m-1404 -25 c-10 -2 -28 -2 -40 0 -13 2
-5 4 17 4 22 1 32 -1 23 -4z m-186 -72 c-1 -50 0 -51 29 -51 16 0 29 -3 29 -7
0 -5 -16 -8 -35 -8 l-35 0 0 64 c0 35 3 62 6 58 3 -3 6 -28 6 -56z m113 42
c-16 -40 -15 -50 9 -76 27 -29 14 -38 -16 -10 -26 23 -23 103 4 103 6 0 7 -8
3 -17z m1627 -45 c-9 -9 -12 -7 -12 12 0 19 3 21 12 12 9 -9 9 -15 0 -24z
m-66 -5 c-10 -10 -19 5 -10 18 6 11 8 11 12 0 2 -7 1 -15 -2 -18z m154 -23 c0
-10 6 -21 13 -23 6 -3 2 -6 -11 -6 -25 -1 -38 20 -28 45 8 20 26 9 26 -16z
m-66 -15 c3 -8 1 -15 -4 -15 -6 0 -10 7 -10 15 0 8 2 15 4 15 2 0 6 -7 10 -15z
m-1224 -9 c0 -2 -7 -7 -16 -10 -8 -3 -12 -2 -9 4 6 10 25 14 25 6z m-89 -37
c-9 -22 -10 -22 -10 -3 -1 11 2 24 6 27 12 12 14 0 4 -24z m254 22 c3 -5 1
-12 -5 -16 -5 -3 -10 1 -10 9 0 18 6 21 15 7z m70 0 c3 -5 1 -12 -4 -15 -5 -3
-11 1 -15 9 -6 16 9 21 19 6z m-198 -33 c-3 -7 -5 -2 -5 12 0 14 2 19 5 13 2
-7 2 -19 0 -25z m-537 -60 c0 -13 -5 -30 -10 -38 -7 -11 -10 -5 -10 23 0 20 5
37 10 37 6 0 10 -10 10 -22z m210 -3 c0 -14 -4 -25 -10 -25 -11 0 -14 33 -3
43 11 11 13 8 13 -18z m1027 -22 c-3 -10 -5 -4 -5 12 0 17 2 24 5 18 2 -7 2
-21 0 -30z m645 22 c0 -5 -5 -11 -11 -13 -6 -2 -11 4 -11 13 0 9 5 15 11 13 6
-2 11 -8 11 -13z m-1752 -15 c0 -5 -2 -10 -4 -10 -3 0 -8 5 -11 10 -3 6 -1 10
4 10 6 0 11 -4 11 -10z m160 -49 c0 -6 -17 -11 -37 -13 -36 -3 -38 -5 -41 -40
-3 -37 -3 -37 39 -40 63 -5 63 -28 0 -28 -39 0 -53 4 -60 19 -11 19 -9 80 3
100 9 13 96 15 96 2z m482 -23 c-9 -9 -12 -7 -12 12 0 19 3 21 12 12 9 -9 9
-15 0 -24z m115 10 c-3 -8 -6 -5 -6 6 -1 11 2 17 5 13 3 -3 4 -12 1 -19z m130
-10 c-3 -7 -5 -2 -5 12 0 14 2 19 5 13 2 -7 2 -19 0 -25z m-1013 -40 c7 -30
35 -43 72 -34 19 5 25 15 30 46 7 42 24 55 24 19 0 -43 -38 -88 -75 -88 -38 0
-76 48 -74 96 0 25 1 26 9 8 5 -11 11 -32 14 -47z m673 -90 c-3 -7 -5 -2 -5
12 0 14 2 19 5 13 2 -7 2 -19 0 -25z m56 18 c6 -16 -2 -28 -14 -20 -12 7 -11
34 0 34 5 0 11 -6 14 -14z m67 -41 c0 -59 -7 -68 -29 -33 -10 16 -10 23 -2 26
6 2 11 14 11 26 0 20 7 36 17 36 2 0 3 -25 3 -55z m60 36 c12 -24 13 -41 0
-21 -8 13 -10 13 -14 0 -3 -8 -7 -28 -9 -45 -2 -16 -5 -4 -6 28 -1 58 10 73
29 38z m207 -3 c-3 -8 -6 -5 -6 6 -1 11 2 17 5 13 3 -3 4 -12 1 -19z m-150
-20 c-3 -7 -5 -2 -5 12 0 14 2 19 5 13 2 -7 2 -19 0 -25z m40 0 c-3 -8 -6 -5
-6 6 -1 11 2 17 5 13 3 -3 4 -12 1 -19z m80 -30 c-2 -13 -4 -5 -4 17 -1 22 1
32 4 23 2 -10 2 -28 0 -40z m450 10 c-3 -8 -6 -5 -6 6 -1 11 2 17 5 13 3 -3 4
-12 1 -19z m-570 -44 c-4 -4 -14 1 -22 12 -22 29 -18 41 7 17 12 -13 19 -26
15 -29z m551 14 c-2 -6 -10 -14 -16 -16 -7 -2 -10 2 -6 12 7 18 28 22 22 4z
m-708 -382 c0 -2 -7 -6 -15 -10 -8 -3 -15 -1 -15 4 0 6 7 10 15 10 8 0 15 -2
15 -4z m2170 -638 c0 -2 7 -24 15 -50 l14 -48 -39 0 c-22 0 -40 4 -40 8 0 5
14 7 30 4 24 -3 30 -1 30 14 0 11 -7 28 -15 38 -17 23 -19 36 -5 36 6 0 10 -1
10 -2z m95 -115 c4 -17 13 -23 33 -24 24 -2 25 -2 4 -6 -40 -8 -52 13 -50 86
1 58 2 60 5 16 2 -27 6 -60 8 -72z m165 107 c0 -5 -5 -10 -11 -10 -5 0 -7 5
-4 10 3 6 8 10 11 10 2 0 4 -4 4 -10z m-93 -92 c-2 -18 -4 -4 -4 32 0 36 2 50
4 33 2 -18 2 -48 0 -65z m353 72 c0 -11 -4 -20 -10 -20 -5 0 -10 9 -10 20 0
11 5 20 10 20 6 0 10 -9 10 -20z m100 4 c0 -8 -4 -12 -10 -9 -5 3 -10 10 -10
16 0 5 5 9 10 9 6 0 10 -7 10 -16z m-283 -26 c-3 -7 -5 -2 -5 12 0 14 2 19 5
13 2 -7 2 -19 0 -25z m-370 -10 c-3 -8 -6 -5 -6 6 -1 11 2 17 5 13 3 -3 4 -12
1 -19z m375 -43 c3 -13 1 -22 -3 -19 -9 5 -13 44 -5 44 2 0 6 -11 8 -25z m89
-18 c-10 -9 -11 -8 -5 6 3 10 9 15 12 12 3 -3 0 -11 -7 -18z m-394 -9 c-3 -8
-6 -5 -6 6 -1 11 2 17 5 13 3 -3 4 -12 1 -19z m356 -15 c-7 -2 -19 -2 -25 0
-7 3 -2 5 12 5 14 0 19 -2 13 -5z m-3284 -35 c0 -13 -3 -17 -6 -10 -8 19 -23
14 -23 -8 0 -11 -4 -20 -10 -20 -5 0 -7 7 -5 15 3 8 7 22 10 30 7 24 35 18 34
-7z m156 15 c-37 -9 -55 -34 -55 -77 1 -60 19 -79 75 -78 30 1 43 -2 39 -10
-10 -15 -93 -3 -113 16 -10 11 -16 34 -16 67 0 41 4 54 24 70 13 10 33 18 45
18 20 -1 20 -2 1 -6z m52 1 c-3 -3 -12 -4 -19 -1 -8 3 -5 6 6 6 11 1 17 -2 13
-5z m116 -72 c46 -3 47 -2 47 25 0 15 5 35 10 43 7 10 10 -12 10 -72 0 -52 -4
-88 -10 -88 -5 0 -10 18 -10 41 l0 40 -47 -3 -48 -3 -6 -45 c-4 -31 -6 -15 -6
50 0 59 2 80 6 55 6 -40 6 -40 54 -43z m136 -7 c0 -49 -3 -85 -9 -85 -6 0 -10
36 -10 85 0 47 4 85 9 85 5 0 10 -38 10 -85z m81 81 c0 -2 3 -12 7 -22 5 -13
3 -16 -10 -11 -8 3 -18 1 -21 -6 -2 -7 -5 0 -5 16 -1 18 4 27 14 27 8 0 15 -2
15 -4z m-673 -133 c-2 -21 -4 -4 -4 37 0 41 2 58 4 38 2 -21 2 -55 0 -75z
m783 32 c0 -82 -14 -84 -58 -11 -40 68 -42 86 -2 23 16 -26 34 -47 40 -47 5 0
10 23 10 50 0 28 2 50 5 50 3 0 5 -29 5 -65z m-617 -1 c18 -57 16 -89 -2 -40
-7 17 -18 26 -33 27 -19 1 -20 2 -4 6 14 4 17 11 12 34 -10 50 8 31 27 -27z
m484 -36 c-2 -18 -4 -6 -4 27 0 33 2 48 4 33 2 -15 2 -42 0 -60z m-569 17 c-5
-5 -16 -19 -24 -30 l-16 -20 8 20 c4 11 12 35 18 53 10 30 11 31 16 10 4 -13
2 -27 -2 -33z m2681 3 l-1 -53 -9 40 c-5 21 -7 45 -5 52 11 26 16 12 15 -39z
m69 -9 c16 -1 16 -2 0 -6 -9 -2 -19 -12 -21 -21 -3 -9 -4 8 -4 38 0 31 2 41 4
23 3 -22 10 -33 21 -34z m365 10 c-2 -71 -13 -75 -13 -6 0 32 4 57 8 57 4 0 7
-23 5 -51z m-336 9 c-3 -7 -5 -2 -5 12 0 14 2 19 5 13 2 -7 2 -19 0 -25z m380
0 c-3 -7 -5 -2 -5 12 0 14 2 19 5 13 2 -7 2 -19 0 -25z m139 -23 c0 -30 -4
-55 -8 -55 -5 0 -8 25 -8 55 0 30 4 55 9 55 4 0 8 -25 7 -55z m90 5 c16 0 24
-5 23 -17 0 -11 -3 -13 -6 -5 -9 24 -41 13 -46 -15 -2 -16 -4 -1 -4 32 0 33 2
48 4 33 3 -22 10 -28 29 -28z m97 -1 c21 -2 21 -2 -2 -6 -18 -4 -22 -10 -18
-29 2 -13 0 -24 -4 -24 -5 0 -8 26 -8 58 1 31 4 45 6 30 3 -20 10 -28 26 -29z
m-936 -6 c-3 -10 -5 -4 -5 12 0 17 2 24 5 18 2 -7 2 -21 0 -30z m60 5 c-3 -8
-6 -5 -6 6 -1 11 2 17 5 13 3 -3 4 -12 1 -19z m-30 -35 c-3 -10 -5 -2 -5 17 0
19 2 27 5 18 2 -10 2 -26 0 -35z m-580 -15 c-3 -8 -6 -5 -6 6 -1 11 2 17 5 13
3 -3 4 -12 1 -19z m-1897 -90 c0 -7 -5 -20 -10 -28 -8 -12 -10 -9 -10 13 0 15
5 27 10 27 6 0 10 -6 10 -12z m84 -29 c6 -37 2 -60 -8 -48 -8 10 -15 89 -7 89
4 0 11 -19 15 -41z m113 19 c-3 -8 -6 -5 -6 6 -1 11 2 17 5 13 3 -3 4 -12 1
-19z m155 -45 c2 -24 0 -43 -4 -43 -5 0 -7 26 -7 58 1 61 6 55 11 -15z m2522
42 c-7 -16 -24 -21 -24 -6 0 8 7 13 27 20 1 1 0 -6 -3 -14z m-2627 -17 c-3 -8
-6 -5 -6 6 -1 11 2 17 5 13 3 -3 4 -12 1 -19z m-130 -25 c-3 -10 -5 -4 -5 12
0 17 2 24 5 18 2 -7 2 -21 0 -30z m180 15 c-3 -8 -6 -5 -6 6 -1 11 2 17 5 13
3 -3 4 -12 1 -19z m2200 -15 c-3 -10 -5 -4 -5 12 0 17 2 24 5 18 2 -7 2 -21 0
-30z m-2468 -28 c0 -5 -4 -3 -9 5 -5 8 -9 22 -9 30 0 16 17 -16 18 -35z m491
41 c0 -2 -9 -6 -20 -9 -11 -3 -20 -1 -20 4 0 5 9 9 20 9 11 0 20 -2 20 -4z
m1657 -18 c-3 -8 -6 -5 -6 6 -1 11 2 17 5 13 3 -3 4 -12 1 -19z m283 6 c0 -8
-4 -12 -10 -9 -5 3 -10 10 -10 16 0 5 5 9 10 9 6 0 10 -7 10 -16z m-2180 -19
c0 -8 -4 -15 -10 -15 -5 0 -10 7 -10 15 0 8 5 15 10 15 6 0 10 -7 10 -15z
m2377 -87 c-3 -7 -5 -2 -5 12 0 14 2 19 5 13 2 -7 2 -19 0 -25z m506 25 c-7
-2 -21 -2 -30 0 -10 3 -4 5 12 5 17 0 24 -2 18 -5z m114 -60 c-2 -16 -4 -5 -4
22 0 28 2 40 4 28 2 -13 2 -35 0 -50z m80 45 c-3 -8 -6 -5 -6 6 -1 11 2 17 5
13 3 -3 4 -12 1 -19z m-317 3 c0 -6 -4 -13 -10 -16 -5 -3 -10 1 -10 9 0 9 5
16 10 16 6 0 10 -4 10 -9z m56 -7 c-3 -9 -6 -27 -6 -42 0 -16 -4 -22 -9 -16
-11 12 -2 74 11 74 6 0 7 -7 4 -16z m-999 -13 c-52 -8 -76 -45 -57 -90 7 -17
20 -32 29 -32 13 -1 12 -2 -2 -6 -41 -11 -62 65 -31 112 13 20 24 25 58 24
l41 -2 -38 -6z m165 -5 c39 -29 27 -117 -17 -124 -18 -3 -18 -2 3 13 16 12 22
26 22 54 0 45 -14 61 -56 61 -35 0 -44 -13 -44 -63 0 -36 8 -51 30 -60 10 -4
8 -6 -7 -6 -42 -2 -59 80 -26 119 20 23 69 26 95 6z m146 -15 c2 -13 -1 -27
-8 -31 -8 -5 -8 -14 0 -34 16 -44 11 -64 -8 -26 -11 23 -24 35 -37 35 -15 0
-22 -9 -26 -35 -4 -24 -7 -11 -8 43 l-1 78 43 -3 c36 -3 43 -7 45 -27z m92 20
c-26 -4 -36 -12 -38 -28 -3 -19 1 -23 22 -23 14 0 26 -4 26 -10 0 -5 -11 -10
-25 -10 -20 0 -25 -5 -25 -25 0 -22 4 -25 38 -26 l37 -1 -40 -8 c-22 -4 -42
-6 -44 -4 -4 3 -5 44 -2 112 1 31 2 32 44 31 l42 -2 -35 -6z m-2485 -22 c11
-17 -1 -21 -15 -4 -8 9 -8 15 -2 15 6 0 14 -5 17 -11z m285 2 c0 -5 -7 -14
-15 -21 -16 -14 -18 -10 -9 14 6 17 24 22 24 7z m217 -38 c-3 -10 -5 -2 -5 17
0 19 2 27 5 18 2 -10 2 -26 0 -35z m2510 15 c-3 -8 -6 -5 -6 6 -1 11 2 17 5
13 3 -3 4 -12 1 -19z m-2705 -20 c-7 -7 -12 -8 -12 -2 0 14 12 26 19 19 2 -3
-1 -11 -7 -17z m2332 -23 c-4 -8 -11 -15 -16 -15 -6 0 -5 6 2 15 7 8 14 15 16
15 2 0 1 -7 -2 -15z m-1207 -57 c-2 -13 -4 -3 -4 22 0 25 2 35 4 23 2 -13 2
-33 0 -45z m1286 19 c2 -20 0 -37 -4 -37 -5 0 -9 19 -9 42 0 50 7 47 13 -5z
m-126 -19 c-2 -13 -4 -5 -4 17 -1 22 1 32 4 23 2 -10 2 -28 0 -40z m212 35
c-7 -10 -15 -20 -16 -22 -2 -2 -3 5 -3 17 0 14 6 22 16 22 14 0 15 -3 3 -17z
m91 -23 c0 -5 -2 -10 -4 -10 -3 0 -8 5 -11 10 -3 6 -1 10 4 10 6 0 11 -4 11
-10z m-60 -16 c0 -8 -4 -12 -10 -9 -5 3 -10 10 -10 16 0 5 5 9 10 9 6 0 10 -7
10 -16z m-3050 -101 c-6 -30 -8 -22 -8 37 0 59 2 67 8 38 4 -21 4 -55 0 -75z
m99 35 c-1 -40 -4 -60 -6 -43 -5 34 -17 44 -53 46 -19 1 -17 3 10 8 29 5 36
11 38 34 6 52 12 27 11 -45z m2756 44 c-8 -8 -25 10 -19 20 4 6 9 5 15 -3 4
-7 6 -15 4 -17z m519 -10 c-6 -4 -14 -14 -17 -22 -3 -8 -6 3 -6 25 -1 37 0 38
17 22 11 -12 13 -20 6 -25z m48 16 c-7 -7 -12 -8 -12 -2 0 14 12 26 19 19 2
-3 -1 -11 -7 -17z m35 -15 c-3 -10 -5 -4 -5 12 0 17 2 24 5 18 2 -7 2 -21 0
-30z m-130 -10 c-3 -10 -5 -4 -5 12 0 17 2 24 5 18 2 -7 2 -21 0 -30z m-3460
5 c-3 -8 -6 -5 -6 6 -1 11 2 17 5 13 3 -3 4 -12 1 -19z m327 -10 c-3 -18 -11
-42 -16 -53 -7 -17 -8 -16 -3 5 2 14 5 37 5 53 0 15 5 27 11 27 7 0 8 -12 3
-32z m96 25 c0 -5 -7 -17 -15 -27 -15 -20 -20 -10 -9 18 6 16 24 22 24 9z
m193 0 c-8 -3 -13 -24 -13 -53 0 -47 1 -49 33 -53 31 -4 31 -4 -5 -5 l-38 -2
0 60 c0 51 3 60 18 59 10 0 12 -3 5 -6z m136 0 c-11 -3 -16 -17 -17 -53 -1
-48 0 -49 31 -53 31 -4 31 -4 -5 -5 l-38 -2 0 60 c0 56 2 60 23 59 14 -1 16
-3 6 -6z m83 -24 c-4 -30 -3 -32 22 -27 22 4 26 2 25 -16 0 -11 -3 -15 -6 -8
-9 24 -41 13 -46 -15 -2 -16 -5 0 -6 35 0 34 3 62 7 62 5 0 6 -14 4 -31z m111
24 c4 -3 3 -11 -2 -17 -5 -6 -11 -32 -14 -56 -3 -38 -4 -36 -5 18 -2 57 4 73
21 55z m-381 -51 c1 -40 -17 -62 -53 -62 -38 0 -67 41 -51 73 10 22 11 21 11
-5 1 -44 11 -58 42 -58 22 0 30 6 35 25 3 14 4 37 1 51 -3 16 -1 22 5 16 5 -5
10 -23 10 -40z m448 -14 c0 -33 -4 -48 -9 -42 -9 8 -4 94 5 94 2 0 4 -23 4
-52z m-313 5 c-3 -10 -5 -4 -5 12 0 17 2 24 5 18 2 -7 2 -21 0 -30z m-350 -5
c-3 -7 -5 -2 -5 12 0 14 2 19 5 13 2 -7 2 -19 0 -25z m630 0 c-3 -8 -6 -5 -6
6 -1 11 2 17 5 13 3 -3 4 -12 1 -19z m1380 -35 c-3 -10 -5 -2 -5 17 0 19 2 27
5 18 2 -10 2 -26 0 -35z m223 37 c0 -5 -4 -10 -10 -10 -5 0 -10 5 -10 10 0 6
5 10 10 10 6 0 10 -4 10 -10z m27 -37 c-3 -10 -5 -2 -5 17 0 19 2 27 5 18 2
-10 2 -26 0 -35z m53 11 c0 -8 -4 -14 -10 -14 -5 0 -10 4 -10 9 0 5 -3 18 -7
28 -6 16 -5 16 10 4 9 -7 17 -20 17 -27z m-2663 4 c-3 -8 -6 -5 -6 6 -1 11 2
17 5 13 3 -3 4 -12 1 -19z m378 -8 c-4 -12 -9 -19 -12 -17 -3 3 -2 15 2 27 4
12 9 19 12 17 3 -3 2 -15 -2 -27z m52 -7 c-3 -10 -5 -4 -5 12 0 17 2 24 5 18
2 -7 2 -21 0 -30z m2353 10 c0 -19 -3 -24 -10 -17 -6 6 -8 18 -4 27 9 24 14
21 14 -10z m203 10 c-7 -2 -19 -2 -25 0 -7 3 -2 5 12 5 14 0 19 -2 13 -5z
m102 -37 c0 -24 -5 -40 -13 -42 -7 -1 -8 0 -2 3 5 2 10 20 10 38 0 27 -4 34
-22 38 -20 3 -20 4 2 3 22 -1 25 -5 25 -40z m85 29 c10 -11 9 -18 -3 -30 -9
-8 -20 -15 -26 -15 -6 0 -11 -8 -12 -17 0 -15 -2 -14 -11 4 -24 49 19 98 52
58z m58 8 c-13 -3 -18 -14 -18 -38 0 -24 5 -35 18 -38 13 -4 11 -5 -5 -6 -21
-1 -23 4 -23 44 0 40 2 45 23 44 16 -1 18 -2 5 -6z m-1508 -12 c0 -6 -4 -13
-10 -16 -5 -3 -10 1 -10 9 0 9 5 16 10 16 6 0 10 -4 10 -9z m1217 -38 c-3 -10
-5 -4 -5 12 0 17 2 24 5 18 2 -7 2 -21 0 -30z m90 15 c-3 -8 -6 -5 -6 6 -1 11
2 17 5 13 3 -3 4 -12 1 -19z m18 -47 c-6 -5 -25 10 -25 20 0 5 6 4 14 -3 8 -7
12 -15 11 -17z m135 9 c0 -5 -4 -10 -10 -10 -5 0 -10 5 -10 10 0 6 5 10 10 10
6 0 10 -4 10 -10z m-197 -7 c-7 -2 -19 -2 -25 0 -7 3 -2 5 12 5 14 0 19 -2 13
-5z m-223 -53 c-23 -5 -25 -11 -28 -68 -4 -82 -22 -80 -22 3 0 60 -2 65 -22
66 -18 1 -16 3 7 8 17 4 44 4 60 2 29 -4 30 -5 5 -11z m105 11 c3 -5 -7 -11
-22 -13 -39 -4 -39 -23 2 -48 36 -23 46 -55 23 -78 -14 -14 -68 -16 -68 -2 0
6 13 10 29 10 44 0 47 26 6 53 -39 25 -49 72 -17 80 29 8 41 7 47 -2z m-2318
-108 c-2 -21 -4 -4 -4 37 0 41 2 58 4 38 2 -21 2 -55 0 -75z m98 57 c17 -27
33 -46 37 -42 4 4 8 27 11 52 2 30 4 19 5 -32 1 -43 0 -78 -3 -78 -2 0 -20 25
-40 55 -19 30 -39 55 -44 55 -6 0 -12 -24 -14 -52 -3 -46 -4 -43 -5 20 -2 88
10 93 53 22z m144 17 c11 -18 29 -43 40 -56 l20 -23 -6 50 c-3 33 -2 52 6 57
9 5 11 -13 9 -67 -2 -40 -7 -72 -13 -72 -5 1 -21 23 -36 49 -14 26 -30 47 -35
46 -5 0 -12 -22 -15 -48 -5 -44 -6 -41 -7 25 -1 39 2 72 7 72 5 0 19 -15 30
-33z m225 8 c23 -35 20 -72 -9 -100 -29 -30 -64 -32 -93 -5 -26 25 -29 75 -6
108 22 32 86 31 108 -3z m75 -57 c12 -32 31 -37 31 -9 0 24 29 95 37 88 3 -3
-2 -20 -11 -38 -9 -18 -16 -38 -16 -45 0 -19 -22 -64 -31 -64 -5 0 -13 19 -20
43 -6 23 -15 50 -20 59 -5 10 -9 26 -8 35 0 18 12 -3 38 -69z m172 12 c12 -39
19 -73 15 -77 -3 -3 -6 0 -6 7 0 8 -10 24 -22 37 -12 13 -16 23 -9 23 8 0 10
8 6 23 -12 38 -24 42 -35 12 -8 -20 -8 -30 0 -35 7 -4 3 -13 -10 -25 -11 -10
-20 -25 -20 -33 0 -9 -3 -12 -6 -9 -11 11 37 147 52 147 7 0 22 -30 35 -70z
m102 60 c-12 -5 -34 -5 -50 0 -24 7 -21 8 22 9 38 0 45 -2 28 -9z m64 -97 c-2
-21 -4 -4 -4 37 0 41 2 58 4 38 2 -21 2 -55 0 -75z m90 101 c-3 -3 -12 -4 -19
-1 -8 3 -5 6 6 6 11 1 17 -2 13 -5z m61 -6 c7 -7 12 -17 12 -22 0 -6 -6 -4
-13 5 -7 9 -19 18 -27 22 -13 5 -13 6 1 6 8 1 20 -4 27 -11z m107 -43 l40 -55
6 53 6 52 1 -67 c1 -38 -2 -68 -7 -68 -6 0 -22 22 -38 50 -30 53 -43 62 -43
30 0 -38 -16 -20 -17 20 -1 22 1 40 5 40 4 0 25 -25 47 -55z m277 12 c-5 -20
-6 -20 -12 -1 -4 10 -5 25 -2 32 8 22 21 -6 14 -31z m246 14 c2 -13 -2 -27 -8
-31 -9 -6 -9 -13 -1 -28 6 -11 11 -31 10 -44 0 -18 -3 -15 -16 15 -11 28 -21
37 -38 37 -19 0 -25 -6 -28 -32 -2 -18 -5 0 -5 40 l-2 73 43 -3 c36 -3 43 -7
45 -27z m73 11 c-42 -33 -25 -112 24 -112 50 0 67 78 26 112 -23 18 -23 18 -2
18 15 0 27 -11 38 -35 16 -33 16 -37 0 -70 -19 -40 -56 -54 -92 -35 -23 12
-45 49 -45 74 0 20 39 66 57 66 11 0 10 -5 -6 -18z m209 3 c10 -12 10 -18 0
-30 -11 -13 -11 -20 0 -40 12 -22 11 -27 -5 -45 -13 -14 -29 -20 -49 -18 l-31
3 -3 73 -3 72 39 0 c23 0 45 -6 52 -15z m156 -2 c21 -28 17 -83 -8 -110 -48
-51 -126 -6 -114 65 3 19 10 40 17 48 17 20 89 18 105 -3z m-1164 -43 c-3 -29
1 -47 13 -60 19 -21 7 -28 -13 -8 -13 13 -17 108 -4 108 4 0 6 -18 4 -40z
m555 34 c-3 -3 -12 -4 -19 -1 -8 3 -5 6 6 6 11 1 17 -2 13 -5z m963 -19 c11
-13 10 -14 -5 -9 -20 8 -38 -15 -25 -31 5 -6 3 -21 -5 -35 -14 -24 -14 -24
-15 21 0 60 24 86 50 54z m170 5 c0 -5 -4 -10 -10 -10 -5 0 -10 5 -10 10 0 6
5 10 10 10 6 0 10 -4 10 -10z m-92 -7 c-14 -3 -17 -14 -14 -54 2 -27 0 -49 -5
-49 -5 0 -9 25 -9 55 0 51 2 55 23 54 16 -1 17 -3 5 -6z m164 -1 c-7 -5 -13
-29 -14 -55 -1 -62 -18 -49 -18 14 0 44 2 49 23 49 15 0 18 -3 9 -8z m89 -25
c-16 -16 -26 0 -10 19 9 11 15 12 17 4 2 -6 -1 -17 -7 -23z m81 -4 c-6 -65
-10 -70 -11 -15 0 28 3 52 7 52 4 0 6 -17 4 -37z m-269 7 c3 -11 1 -20 -4 -20
-5 0 -9 9 -9 20 0 11 2 20 4 20 2 0 6 -9 9 -20z m314 -2 c-3 -8 -6 -5 -6 6 -1
11 2 17 5 13 3 -3 4 -12 1 -19z m-1871 -36 c-4 -11 -13 -23 -21 -25 -10 -5
-10 1 3 23 18 32 27 33 18 2z m1424 6 c0 -16 -3 -19 -11 -11 -6 6 -8 16 -5 22
11 17 16 13 16 -11z m350 3 c0 -14 -6 -17 -24 -14 -17 4 -25 0 -29 -14 -3 -12
-5 -9 -6 10 -1 24 2 27 24 21 15 -4 25 -2 25 5 0 6 2 11 5 11 3 0 5 -8 5 -19z
m-2946 -26 c-26 -19 -31 -9 -8 16 11 12 20 16 22 9 2 -6 -4 -17 -14 -25z
m1236 -7 c0 -5 -4 -8 -10 -8 -5 0 -10 10 -10 23 0 18 2 19 10 7 5 -8 10 -18
10 -22z m1536 21 c3 -6 -2 -18 -12 -27 -17 -16 -17 -16 -4 1 12 16 12 20 -1
28 -9 5 -10 9 -2 9 6 0 15 -5 19 -11z m-1849 -21 c-3 -8 -6 -5 -6 6 -1 11 2
17 5 13 3 -3 4 -12 1 -19z m841 -111 c30 -14 52 -61 52 -113 0 -34 -6 -49 -33
-78 -41 -43 -72 -51 -119 -31 -121 50 -64 268 62 237 8 -2 25 -9 38 -15z m388
13 c25 0 63 -53 70 -95 13 -91 -63 -171 -140 -145 -18 6 -42 20 -51 31 -26 28
-32 117 -10 158 18 35 68 63 100 56 11 -3 25 -5 31 -5z m289 -11 c6 -6 6 -9 0
-10 -6 0 -32 -1 -59 -2 -39 -2 -53 -8 -72 -31 -54 -62 -12 -166 67 -166 39 0
39 0 39 40 0 33 -4 42 -22 50 -20 8 -18 9 15 9 l37 1 0 -55 c0 -54 0 -54 -37
-65 -46 -14 -100 5 -132 46 -32 41 -29 115 7 155 38 43 123 58 157 28z m-2207
-92 c12 -3 11 -5 -5 -6 -22 -1 -23 3 -21 57 l2 57 3 -52 c3 -38 8 -53 21 -56z
m116 63 c9 -22 16 -48 16 -58 0 -25 -30 35 -30 62 -1 21 -1 21 -15 2 -15 -20
-15 -20 -15 0 0 21 8 34 21 34 4 0 14 -18 23 -40z m366 31 c0 -6 -17 -11 -37
-13 l-38 -3 -3 -107 c-2 -86 -6 -108 -17 -108 -11 0 -15 22 -17 108 l-3 107
-32 3 c-18 2 -33 7 -33 13 0 5 41 9 90 9 50 0 90 -4 90 -9z m150 0 c0 -6 -21
-11 -47 -13 -48 -3 -48 -3 -51 -40 l-3 -38 50 0 c39 0 51 -4 51 -15 0 -11 -12
-15 -51 -15 l-50 0 3 -42 3 -43 55 -5 c68 -7 45 -23 -26 -18 l-49 3 -8 104
c-4 57 -6 110 -3 118 6 15 126 19 126 4z m220 -1 c0 -5 -20 -10 -44 -10 -68 0
-101 -33 -101 -98 0 -70 28 -100 99 -104 51 -3 51 -4 22 -16 -37 -16 -101 3
-128 39 -43 57 -27 153 31 184 30 16 121 20 121 5z m78 -43 l3 -47 60 0 59 0
0 50 c0 38 4 50 15 50 13 0 15 -17 13 -117 -2 -82 -7 -118 -15 -121 -10 -3
-13 12 -13 52 l0 56 -59 0 -60 0 -3 -52 c-2 -30 -8 -53 -15 -56 -10 -3 -13 25
-13 118 0 93 3 121 13 118 6 -3 13 -25 15 -51z m292 -32 c29 -46 56 -82 61
-79 5 3 9 41 9 85 0 46 4 79 10 79 6 0 10 -47 10 -121 0 -105 -2 -120 -16
-117 -9 2 -26 19 -38 39 -11 20 -34 59 -51 87 -16 28 -33 48 -37 46 -4 -3 -8
-44 -8 -90 0 -64 -3 -85 -12 -82 -13 5 -24 197 -14 225 12 30 37 8 86 -72z
m432 -22 l3 -108 53 -3 c28 -2 52 -8 52 -13 0 -6 -27 -9 -67 -7 l-68 3 -3 104
c-3 108 0 131 17 131 6 0 12 -45 13 -107z m657 50 l28 -57 19 34 c10 19 23 44
29 54 5 11 16 21 24 24 18 6 6 -31 -28 -83 -15 -25 -27 -60 -31 -93 -3 -29 -9
-53 -15 -53 -5 0 -12 24 -15 53 -4 34 -18 74 -38 110 -37 65 -37 68 -17 68 8
0 28 -26 44 -57z m-2382 25 c-3 -8 -6 -5 -6 6 -1 11 2 17 5 13 3 -3 4 -12 1
-19z m248 1 c11 -17 -1 -21 -15 -4 -8 9 -8 15 -2 15 6 0 14 -5 17 -11z m-720
-9 c3 -5 1 -10 -4 -10 -6 0 -11 5 -11 10 0 6 2 10 4 10 3 0 8 -4 11 -10z m760
-41 c0 -18 -6 -25 -25 -26 -14 -2 -19 0 -10 4 23 9 30 26 17 42 -10 11 -9 13
3 9 8 -2 15 -16 15 -29z m-288 -1 c-3 -8 -6 -5 -6 6 -1 11 2 17 5 13 3 -3 4
-12 1 -19z m135 0 c-7 -7 -12 -8 -12 -2 0 14 12 26 19 19 2 -3 -1 -11 -7 -17z
m-179 -25 c-7 -2 -19 -2 -25 0 -7 3 -2 5 12 5 14 0 19 -2 13 -5z m2639 -26
c-6 -7 -12 -30 -15 -52 -3 -36 -4 -35 -5 13 -2 42 1 52 14 52 12 0 14 -3 6
-13z m74 -1 c19 -19 18 -64 -1 -83 -9 -8 -18 -13 -21 -11 -2 3 2 11 11 18 22
18 18 56 -7 74 -12 9 -17 16 -10 16 8 0 20 -6 28 -14z m-56 -106 c13 -8 13
-10 -2 -10 -9 0 -20 5 -23 10 -8 13 5 13 25 0z m-2886 -96 c3 -8 2 -12 -4 -9
-6 3 -10 10 -10 16 0 14 7 11 14 -7z m77 7 c-8 -5 -20 -7 -28 -4 -21 8 -15 13
15 13 20 0 23 -3 13 -9z m112 2 c-7 -2 -19 -2 -25 0 -7 3 -2 5 12 5 14 0 19
-2 13 -5z m67 -26 c0 -5 -4 -5 -10 -2 -5 3 -10 14 -10 23 0 15 2 15 10 2 5 -8
10 -19 10 -23z m40 -14 c-1 -44 -2 -47 -15 -29 -10 13 -12 23 -5 30 5 5 10 18
10 28 0 10 2 18 5 18 3 0 5 -21 5 -47z m194 31 c9 -22 -3 -32 -14 -14 -12 19
-12 30 -1 30 5 0 12 -7 15 -16z m203 -21 c-3 -10 -5 -4 -5 12 0 17 2 24 5 18
2 -7 2 -21 0 -30z m83 27 c0 -5 -2 -10 -4 -10 -3 0 -8 5 -11 10 -3 6 -1 10 4
10 6 0 11 -4 11 -10z m127 3 c-28 -4 -29 -6 -25 -54 1 -27 0 -49 -4 -49 -5 0
-8 25 -8 55 l0 55 33 -1 c31 -2 31 -2 4 -6z m121 0 c-36 -5 -40 -42 -5 -44 22
-2 22 -2 -2 -6 -18 -4 -22 -10 -18 -29 2 -13 0 -24 -4 -24 -5 0 -9 25 -9 55
l0 55 33 -1 c30 -2 30 -2 5 -6z m49 -30 c-3 -10 -5 -4 -5 12 0 17 2 24 5 18 2
-7 2 -21 0 -30z m133 28 c-37 -10 -39 -41 -3 -42 l28 -2 -27 -4 c-29 -5 -40
-37 -15 -46 7 -3 5 -6 -5 -6 -15 -1 -18 8 -18 54 l0 55 33 -1 c29 -1 30 -2 7
-8z m55 -48 c-3 -14 -1 -31 6 -39 9 -11 8 -14 -5 -14 -13 0 -16 11 -16 58 1
45 3 53 11 39 6 -10 8 -30 4 -44z m147 40 c10 -9 17 -28 17 -42 -2 -26 -2 -26
-6 -2 -6 31 -23 48 -54 54 l-24 4 24 2 c14 0 33 -6 43 -16z m94 -16 c1 -26 1
-26 -3 -2 -3 18 -10 25 -21 23 -13 -2 -17 -14 -18 -46 -1 -65 -14 -63 -14 2 0
57 0 57 28 54 22 -2 27 -8 28 -31z m74 -19 c0 -10 -4 -18 -9 -18 -11 0 -21 25
-21 53 0 20 0 20 15 1 8 -10 15 -27 15 -36z m62 7 c-6 -20 -11 -25 -16 -17
-11 18 2 68 14 56 5 -5 6 -23 2 -39z m81 38 c-15 -3 -23 -12 -23 -24 0 -13 7
-19 23 -20 21 -1 21 -1 -3 -8 -18 -5 -24 -14 -23 -29 2 -12 -2 -22 -7 -22 -6
0 -10 25 -10 55 l0 55 33 -1 c23 -1 26 -3 10 -6z m87 -50 c0 -15 12 -17 26 -4
5 6 9 -1 10 -20 1 -37 -15 -33 -35 9 -21 41 -29 40 -34 -5 -2 -26 -4 -20 -5
22 l-2 60 20 -25 c11 -14 20 -31 20 -37z m123 47 c-19 -8 -23 -18 -25 -57 l-1
-48 -4 45 c-2 26 -11 50 -20 58 -14 10 -10 12 28 11 36 0 40 -2 22 -9z m94
-42 c-2 -13 -4 -5 -4 17 -1 22 1 32 4 23 2 -10 2 -28 0 -40z m34 7 c-9 -30 -9
-30 -10 10 -1 25 2 36 9 29 6 -6 6 -21 1 -39z m49 5 c0 -35 -2 -39 -14 -28 -9
8 -11 17 -5 23 5 5 9 17 9 27 0 10 2 18 5 18 3 0 5 -18 5 -40z m39 26 c7 -8 8
-17 3 -20 -6 -3 -12 3 -15 14 -6 24 -4 25 12 6z m124 7 c-7 -2 -21 -2 -30 0
-10 3 -4 5 12 5 17 0 24 -2 18 -5z m84 -15 c-3 -8 -6 -5 -6 6 -1 11 2 17 5 13
3 -3 4 -12 1 -19z m49 -5 c-10 -10 -19 5 -10 18 6 11 8 11 12 0 2 -7 1 -15 -2
-18z m102 -10 c-1 -37 -1 -37 -5 -5 -3 24 -9 32 -24 32 -15 0 -19 -8 -20 -32
l-2 -33 -4 30 c-3 16 -10 33 -16 37 -7 4 7 8 31 8 l42 0 -2 -37z m75 30 c-7
-2 -19 -2 -25 0 -7 3 -2 5 12 5 14 0 19 -2 13 -5z m49 -37 c-7 -24 -9 -26 -20
-13 -11 13 -11 19 0 36 17 27 29 13 20 -23z m171 37 c-7 -2 -19 -2 -25 0 -7 3
-2 5 12 5 14 0 19 -2 13 -5z m74 1 c-3 -3 -12 -4 -19 -1 -8 3 -5 6 6 6 11 1
17 -2 13 -5z m-1731 -31 c-10 -10 -19 5 -10 18 6 11 8 11 12 0 2 -7 1 -15 -2
-18z m-1196 -25 c0 -38 -5 -34 -13 10 -4 21 -3 31 3 27 6 -3 10 -20 10 -37z
m427 10 c-3 -7 -5 -2 -5 12 0 14 2 19 5 13 2 -7 2 -19 0 -25z m233 17 c0 -8
-4 -15 -10 -15 -5 0 -10 7 -10 15 0 8 5 15 10 15 6 0 10 -7 10 -15z m348 -31
c-3 -27 -4 -26 -9 8 -3 22 -1 34 4 29 5 -5 7 -21 5 -37z m-738 21 c0 -8 -4
-15 -10 -15 -5 0 -10 7 -10 15 0 8 5 15 10 15 6 0 10 -7 10 -15z m1970 -12
c-1 -24 -2 -26 -11 -10 -5 9 -7 22 -4 27 10 17 15 11 15 -17z m484 -13 c-6 -5
-24 21 -24 34 0 6 6 1 14 -10 8 -10 12 -21 10 -24z m-2527 8 c-3 -8 -6 -5 -6
6 -1 11 2 17 5 13 3 -3 4 -12 1 -19z m2193 -4 c0 -8 -4 -12 -10 -9 -5 3 -10
13 -10 21 0 8 5 12 10 9 6 -3 10 -13 10 -21z m81 16 c5 0 9 -3 9 -7 0 -5 -13
-8 -29 -8 -19 0 -27 4 -23 13 2 7 11 11 19 8 8 -3 19 -6 24 -6z m-1951 -4 c0
-3 -4 -8 -10 -11 -5 -3 -10 -1 -10 4 0 6 5 11 10 11 6 0 10 -2 10 -4z m656
-31 c-8 -32 -30 -28 -33 6 -1 14 0 17 3 7 8 -25 24 -22 24 4 0 12 3 19 6 15 4
-3 3 -18 0 -32z m-466 15 c0 -5 -10 -10 -22 -9 -22 0 -22 1 -3 9 11 5 21 9 23
9 1 1 2 -3 2 -9z m941 -33 c-17 -17 -24 -1 -9 22 11 18 14 19 16 5 2 -9 -1
-21 -7 -27z m-251 8 c7 -9 8 -15 2 -15 -5 0 -12 7 -16 15 -3 8 -4 15 -2 15 2
0 9 -7 16 -15z m60 -5 c0 -5 -5 -10 -11 -10 -5 0 -7 5 -4 10 3 6 8 10 11 10 2
0 4 -4 4 -10z m-463 -6 c-3 -3 -12 -4 -19 -1 -8 3 -5 6 6 6 11 1 17 -2 13 -5z
m-300 -91 c-3 -10 -5 -2 -5 17 0 19 2 27 5 18 2 -10 2 -26 0 -35z m56 32 c4
-8 2 -17 -3 -20 -6 -4 -10 3 -10 14 0 25 6 27 13 6z m1386 -53 c7 -23 16 -40
20 -37 5 3 17 28 27 55 10 28 23 49 29 47 5 -2 11 -36 11 -78 l2 -74 -12 58
-11 57 -13 -32 c-8 -18 -18 -44 -23 -57 l-10 -24 -15 27 c-8 16 -14 34 -14 41
0 7 -7 15 -15 19 -12 4 -15 -3 -15 -34 0 -22 -5 -40 -11 -40 -10 0 -6 77 8
124 7 26 26 3 42 -52z m224 54 c22 -17 33 -76 18 -103 -6 -11 -20 -23 -32 -26
l-21 -6 21 20 c37 35 21 119 -23 119 -29 0 -46 -26 -46 -69 0 -28 5 -43 17
-50 10 -5 15 -12 11 -16 -3 -4 -16 3 -27 14 -59 59 17 166 82 117z m227 5
c-18 -5 -25 -14 -25 -31 0 -17 7 -26 25 -31 25 -7 25 -7 -4 -8 -27 -1 -28 -3
-23 -37 4 -24 2 -34 -5 -32 -6 2 -11 21 -10 41 2 117 -1 107 35 106 29 -1 30
-2 7 -8z m-2152 -34 c-7 -14 -13 -17 -16 -9 -6 19 6 44 18 37 7 -4 6 -14 -2
-28z m101 4 c-15 -5 -22 6 -14 19 6 9 10 9 16 -1 5 -8 4 -15 -2 -18z m1900
-20 c9 -36 16 -48 27 -44 8 3 14 16 14 29 0 13 5 24 10 24 6 0 11 10 11 23 2
19 2 20 6 2 4 -22 -30 -118 -43 -122 -9 -3 -27 32 -39 77 -4 14 -9 33 -11 43
-3 9 -1 17 3 17 5 0 15 -22 22 -49z m-1862 17 c-3 -8 -6 -5 -6 6 -1 11 2 17 5
13 3 -3 4 -12 1 -19z m468 -15 c-39 -10 -45 -23 -45 -104 0 -46 -4 -79 -10
-79 -6 0 -10 35 -10 85 l0 84 -32 10 c-28 8 -21 9 42 9 41 0 66 -3 55 -5z
m116 -2 c-61 -11 -71 -71 -11 -71 16 0 30 -4 30 -10 0 -5 -14 -10 -30 -10 -34
0 -45 -17 -36 -54 5 -20 14 -26 44 -29 30 -3 28 -4 -15 -5 l-53 -2 0 95 0 95
53 -1 c45 -1 47 -2 18 -8z m199 1 c0 -5 -12 -7 -28 -4 -18 2 -37 -4 -55 -18
-22 -17 -27 -29 -27 -65 0 -47 17 -72 53 -80 12 -2 31 -6 42 -8 11 -3 0 -5
-25 -6 -50 -1 -59 3 -83 39 -25 36 -21 83 9 119 22 26 33 31 70 31 24 0 44 -4
44 -8z m70 -32 l0 -40 45 0 45 0 0 40 c0 29 4 40 15 40 12 0 15 -17 15 -95 0
-76 -3 -95 -14 -95 -10 0 -16 14 -18 43 -3 42 -3 42 -45 45 l-42 3 -3 -42 c-2
-23 -9 -44 -15 -47 -10 -3 -13 20 -13 92 0 79 3 96 15 96 11 0 15 -11 15 -40z
m218 33 c-12 -3 -18 -17 -21 -46 l-4 -42 -1 48 c-2 43 0 47 21 46 16 -1 17 -3
5 -6z m109 -13 c3 -10 2 -11 -4 -4 -4 7 -17 14 -28 17 -16 5 -15 5 4 4 14 -1
26 -9 28 -17z m66 13 c-7 -2 -19 -2 -25 0 -7 3 -2 5 12 5 14 0 19 -2 13 -5z
m87 0 c-14 -3 -28 -10 -32 -17 -5 -7 -8 -7 -8 0 0 17 12 24 39 23 l26 -2 -25
-4z m88 0 c-10 -2 -26 -2 -35 0 -10 3 -2 5 17 5 19 0 27 -2 18 -5z m-212 -50
c-10 -10 -19 5 -10 18 6 11 8 11 12 0 2 -7 1 -15 -2 -18z m64 -3 c0 -5 -4 -10
-10 -10 -5 0 -10 5 -10 10 0 6 5 10 10 10 6 0 10 -4 10 -10z m900 -67 c5 -7
10 -17 10 -23 0 -5 4 -10 9 -10 6 0 12 21 14 48 3 39 4 36 5 -20 1 -38 0 -68
-2 -68 -2 0 -17 20 -33 45 -15 25 -31 45 -35 45 -4 0 -9 -24 -11 -52 -3 -43
-4 -39 -5 22 l-1 75 19 -25 c11 -14 24 -30 30 -37z m118 50 c-23 -6 -34 -43
-17 -54 9 -6 10 -9 2 -9 -6 0 -14 -10 -16 -22 -2 -13 -5 3 -6 35 -1 56 -1 57
27 56 16 -1 20 -3 10 -6z m-2420 -30 c-11 -3 -18 -17 -20 -41 l-3 -37 -5 43
c-5 40 -4 42 20 41 16 -1 19 -3 8 -6z m80 -35 l-1 -43 -4 37 c-3 28 -9 38 -26
41 -18 4 -17 5 6 6 26 1 27 -1 25 -41z m98 2 c1 -34 1 -34 -3 -3 -3 23 -10 33
-26 36 -18 3 -18 4 3 3 22 -1 25 -6 26 -36z m50 29 c3 -6 2 -14 -3 -18 -6 -3
-13 -13 -16 -21 -3 -8 -6 0 -6 18 -1 32 11 42 25 21z m51 -11 c-3 -8 -6 -5 -6
6 -1 11 2 17 5 13 3 -3 4 -12 1 -19z m33 -40 c-7 -19 -9 -15 -9 22 0 37 2 41
9 23 6 -14 6 -32 0 -45z m77 56 c-3 -3 -12 -4 -19 -1 -8 3 -5 6 6 6 11 1 17
-2 13 -5z m-908 -11 c0 -5 -4 -17 -9 -28 -8 -18 -9 -17 -9 8 -1 15 4 27 9 27
6 0 10 -3 9 -7z m101 -80 c0 -48 -4 -83 -8 -77 -8 9 -4 164 4 164 2 0 4 -39 4
-87z m1660 20 c-37 -7 -60 -32 -60 -65 0 -36 18 -55 56 -61 27 -4 26 -4 -6 -6
-46 -1 -60 13 -60 65 0 48 26 75 70 73 l25 -2 -25 -4z m152 -10 c25 -22 24
-84 -1 -107 -28 -25 -79 -17 -98 15 -41 67 42 144 99 92z m97 -51 c11 -41 13
-43 26 -25 14 17 14 17 15 -3 0 -12 -6 -27 -14 -33 -12 -10 -17 -5 -27 29 -8
27 -17 39 -26 36 -9 -4 -13 5 -13 31 0 32 2 35 13 23 8 -8 19 -35 26 -58z m87
-8 c1 -38 0 -55 -2 -39 -3 17 -7 41 -10 54 -5 22 -6 23 -19 5 -18 -24 -19 -7
-2 29 20 43 32 25 33 -49z m112 64 c16 -16 15 -43 -2 -57 -12 -10 -14 -6 -13
21 2 27 -2 34 -20 36 -20 3 -23 -1 -23 -27 0 -18 7 -34 18 -40 15 -10 16 -10
0 -11 -10 0 -18 -10 -21 -27 -2 -16 -5 5 -6 45 l-1 72 28 0 c15 0 33 -5 40
-12z m65 -105 c11 -17 42 -17 55 0 6 7 12 37 15 67 l3 55 2 -60 c2 -67 -8 -85
-48 -85 -40 0 -50 18 -49 85 l2 60 6 -55 c3 -30 10 -61 14 -67z m180 107 c-20
-8 -23 -17 -25 -72 l-1 -63 -6 64 c-5 52 -10 66 -26 72 -14 5 -4 8 30 8 40 0
45 -2 28 -9z m87 1 c-15 -4 -26 -15 -28 -29 -3 -18 2 -22 25 -23 28 -1 28 -1
3 -8 -18 -5 -25 -14 -25 -31 0 -21 6 -26 35 -31 l35 -6 -42 -2 -43 -1 0 70 0
70 33 -1 c29 -1 30 -2 7 -8z m126 1 c7 -4 11 -31 11 -61 0 -30 -3 -48 -6 -40
-5 18 -33 39 -43 33 -4 -3 -12 -19 -17 -37 -8 -28 -9 -24 -10 34 -1 36 2 69 6
72 9 9 45 9 59 -1z m-2596 -57 c0 -11 -14 7 -31 40 -7 13 -3 12 10 -5 11 -14
21 -29 21 -35z m-153 -7 c-3 -8 -6 -5 -6 6 -1 11 2 17 5 13 3 -3 4 -12 1 -19z
m2053 -48 c0 -11 -4 -20 -9 -20 -5 0 -7 9 -4 20 3 11 7 20 9 20 2 0 4 -9 4
-20z m-873 -42 c-2 -13 -4 -5 -4 17 -1 22 1 32 4 23 2 -10 2 -28 0 -40z m463
38 c0 -8 -4 -18 -10 -21 -5 -3 -10 3 -10 14 0 12 5 21 10 21 6 0 10 -6 10 -14z
m-83 -33 c-3 -10 -5 -4 -5 12 0 17 2 24 5 18 2 -7 2 -21 0 -30z m-607 23 c0
-2 -7 -17 -15 -32 l-15 -29 0 26 c0 14 3 29 7 32 7 8 23 9 23 3z m500 -18 c0
-16 -3 -19 -11 -11 -6 6 -8 16 -5 22 11 17 16 13 16 -11z m27 -10 c-3 -7 -5
-2 -5 12 0 14 2 19 5 13 2 -7 2 -19 0 -25z m198 -7 c-7 -23 -25 -29 -25 -8 0
14 21 39 28 33 2 -3 1 -14 -3 -25z m-444 -8 c-8 -15 -10 -15 -11 -2 0 17 10
32 18 25 2 -3 -1 -13 -7 -23z m59 7 c0 -11 -4 -20 -10 -20 -5 0 -10 9 -10 20
0 11 5 20 10 20 6 0 10 -9 10 -20z m-220 -10 c0 -5 -4 -10 -10 -10 -5 0 -10 5
-10 10 0 6 5 10 10 10 6 0 10 -4 10 -10z m707 -132 c-2 -18 -4 -4 -4 32 0 36
2 50 4 33 2 -18 2 -48 0 -65z m171 40 c-3 -48 -1 -53 22 -59 23 -6 23 -7 -7
-8 l-33 -1 0 53 c0 48 5 67 18 67 2 0 2 -23 0 -52z m-121 5 c-3 -10 -5 -4 -5
12 0 17 2 24 5 18 2 -7 2 -21 0 -30z m73 23 c6 -8 10 -25 7 -38 -4 -21 -4 -20
-6 4 0 15 -9 32 -18 37 -10 6 -13 11 -7 11 6 0 17 -7 24 -14z m180 -2 c0 -17
-22 -14 -28 4 -2 7 3 12 12 12 9 0 16 -7 16 -16z m73 -5 c3 -13 1 -19 -6 -16
-15 5 -22 37 -9 37 5 0 12 -9 15 -21z m204 -26 c-3 -10 -5 -2 -5 17 0 19 2 27
5 18 2 -10 2 -26 0 -35z m50 -5 c-2 -13 -4 -5 -4 17 -1 22 1 32 4 23 2 -10 2
-28 0 -40z m50 5 c-3 -10 -5 -2 -5 17 0 19 2 27 5 18 2 -10 2 -26 0 -35z
m-162 18 c3 -5 1 -12 -5 -16 -5 -3 -10 1 -10 9 0 18 6 21 15 7z m-245 -31 c0
-11 -4 -20 -10 -20 -5 0 -10 9 -10 20 0 11 5 20 10 20 6 0 10 -9 10 -20z m56
-43 c-2 -7 -5 -4 -5 6 -1 9 -5 17 -11 17 -5 0 -10 10 -10 23 1 21 2 20 16 -6
8 -16 13 -34 10 -40z m224 53 c0 -5 -2 -10 -4 -10 -3 0 -8 5 -11 10 -3 6 -1
10 4 10 6 0 11 -4 11 -10z m-1933 -22 c-3 -8 -6 -5 -6 6 -1 11 2 17 5 13 3 -3
4 -12 1 -19z m1042 -16 c-12 -5 -39 17 -39 30 0 5 11 1 24 -9 13 -10 20 -20
15 -21z m754 24 c8 -21 -16 -49 -39 -43 -16 4 -15 5 5 6 19 1 23 5 19 26 -6
27 6 35 15 11z m-970 -23 c-7 -2 -21 -2 -30 0 -10 3 -4 5 12 5 17 0 24 -2 18
-5z m454 1 c-3 -3 -12 -4 -19 -1 -8 3 -5 6 6 6 11 1 17 -2 13 -5z m193 -20 c0
-2 -11 -4 -25 -4 -14 0 -25 4 -25 9 0 4 11 6 25 3 14 -2 25 -6 25 -8z m-388
-86 c35 -20 47 -40 48 -75 0 -36 -26 -73 -50 -72 -13 0 -13 1 0 6 23 9 39 35
40 64 0 36 -46 81 -79 77 -25 -3 -26 -7 -32 -78 l-5 -75 -2 76 c-1 42 1 79 5
82 10 11 52 8 75 -5z m95 -110 c-2 -24 -4 -5 -4 42 0 47 2 66 4 43 2 -24 2
-62 0 -85z m131 115 c-32 -5 -78 -49 -78 -74 0 -30 22 -69 39 -70 11 0 12 -2
3 -6 -24 -9 -52 27 -52 68 0 30 6 42 33 63 17 14 43 25 57 24 25 -1 25 -1 -2
-5z m215 -5 c-19 -9 -23 -20 -25 -82 l-3 -71 -9 73 c-7 61 -12 75 -30 82 -15
6 -6 9 34 9 46 0 51 -2 33 -11z m114 -36 c21 -58 32 -113 22 -106 -5 3 -9 12
-9 20 0 8 -6 17 -14 20 -7 3 -11 14 -9 28 3 12 -2 28 -11 35 -13 11 -16 9 -22
-13 -3 -13 -3 -30 1 -35 3 -6 2 -11 -3 -11 -5 0 -15 -11 -22 -25 -23 -42 -20
-23 6 50 37 101 38 102 61 37z m-228 -36 c1 -36 -3 -67 -9 -71 -6 -4 -10 21
-10 70 0 92 17 93 19 1z m320 -8 l-1 -83 -10 59 c-9 54 -5 106 7 106 3 0 4
-37 4 -82z m-1502 -10 c-2 -13 -4 -3 -4 22 0 25 2 35 4 23 2 -13 2 -33 0 -45z
m1123 -23 c0 -19 -5 -35 -11 -35 -6 0 -8 8 -4 19 3 11 -1 26 -10 35 -15 15
-15 16 4 16 17 0 21 -6 21 -35z m98 -132 c-10 -2 -26 -2 -35 0 -10 3 -2 5 17
5 19 0 27 -2 18 -5z m-241 -25 c-3 -8 -6 -5 -6 6 -1 11 2 17 5 13 3 -3 4 -12
1 -19z"/>
<path d="M4420 6345 c0 -24 9 -30 40 -25 40 6 26 50 -16 50 -19 0 -24 -5 -24
-25z"/>
<path d="M4890 6099 c0 -24 23 -21 28 4 2 10 -3 17 -12 17 -10 0 -16 -9 -16
-21z"/>
<path d="M2682 5978 c-17 -17 -15 -83 2 -97 8 -7 27 -11 43 -9 57 6 53 118 -5
118 -15 0 -33 -5 -40 -12z"/>
<path d="M3894 5975 c-9 -23 3 -45 24 -45 25 0 46 25 38 45 -7 19 -55 20 -62
0z"/>
<path d="M4185 5980 c-3 -5 -1 -19 5 -31 9 -15 9 -24 1 -32 -6 -6 -11 -19 -11
-29 0 -13 8 -18 30 -18 25 0 30 4 30 25 0 16 -6 25 -15 25 -20 0 -19 17 2 28
21 12 10 42 -16 42 -11 0 -23 -4 -26 -10z"/>
<path d="M4312 5970 c-28 -45 -7 -100 38 -100 23 0 33 7 45 30 14 27 14 33 0
60 -19 36 -63 42 -83 10z"/>
<path d="M3838 5740 c-42 -25 -45 -133 -5 -171 71 -66 167 58 110 141 -9 14
-22 28 -27 32 -15 11 -58 9 -78 -2z"/>
<path d="M4239 5731 c-21 -16 -24 -28 -24 -81 0 -53 3 -65 24 -81 31 -26 73
-24 98 4 34 35 35 120 3 155 -26 27 -70 28 -101 3z"/>
<path d="M3776 5054 c-34 -33 -13 -104 31 -104 47 0 68 54 37 98 -18 26 -46
28 -68 6z"/>
<path d="M4558 5058 c-9 -23 3 -38 29 -38 20 0 24 4 21 23 -3 25 -42 37 -50
15z"/>
</g>
</svg>
